# xmcd
#
# Track frame offsets: 
#        150
#        12610
#        28145
#        43740
#        61048
#        75333
#        89690
#        105773
#        119083
#        134583
#        151535
#
# Disc length: 2290 seconds
#
# Revision: 8
# Processed by: cddbd v1.5.2PL0 Copyright (c) Steve Scherf et al.
# Submitted via: ExactAudioCopy v0.99pb5
#
DISCID=8508f00b
DTITLE=Dolly Parton - Eagle When She Flies
DYEAR=1991
DGENRE=Country
TTITLE0=If You Need Me
TTITLE1=Rockin' Years (Duet with Ricky van Shelton)
TTITLE2=Country Road
TTITLE3=Silver and Gold
TTITLE4=Eagle When She Flies
TTITLE5=Best Woman Wins (Duet with Lorrie Morgan)
TTITLE6=What a Heartache
TTITLE7=Runaway Feelin'
TTITLE8=Dreams Do Come True
TTITLE9=Family
TTITLE10=Wildest Dreams
EXTD=YEAR: 1991
EXTT0=
EXTT1=
EXTT2=
EXTT3=
EXTT4=
EXTT5=
EXTT6=
EXTT7=
EXTT8=
EXTT9=
EXTT10=
PLAYORDER=
